<mxfile host="app.diagrams.net" modified="2023-10-02T19:34:50.854Z" agent="Mozilla/5.0 (Windows NT 10.0; Win64; x64) AppleWebKit/537.36 (KHTML, like Gecko) Chrome/117.0.0.0 Safari/537.36" etag="_7BQSkdXr_63bF0K46TB" version="21.8.0" type="device">
  <diagram id="C5RBs43oDa-KdzZeNtuy" name="Page-1">
    <mxGraphModel dx="1195" dy="632" grid="0" gridSize="10" guides="1" tooltips="1" connect="1" arrows="1" fold="1" page="1" pageScale="1" pageWidth="827" pageHeight="1169" math="0" shadow="0">
      <root>
        <mxCell id="WIyWlLk6GJQsqaUBKTNV-0" />
        <mxCell id="WIyWlLk6GJQsqaUBKTNV-1" parent="WIyWlLk6GJQsqaUBKTNV-0" />
        <mxCell id="XnhOhsrcbPEc2k6Vqo-I-85" value="&lt;font style=&quot;font-size: 15px;&quot;&gt;count_in_bounds&lt;/font&gt;" style="rounded=1;whiteSpace=wrap;html=1;fontSize=14;glass=0;strokeWidth=1;shadow=0;" vertex="1" parent="WIyWlLk6GJQsqaUBKTNV-1">
          <mxGeometry x="365.2241379310344" y="460.44827586206895" width="120" height="40" as="geometry" />
        </mxCell>
        <mxCell id="XnhOhsrcbPEc2k6Vqo-I-86" value="Конец" style="rounded=1;whiteSpace=wrap;html=1;fontSize=12;glass=0;strokeWidth=1;shadow=0;" vertex="1" parent="WIyWlLk6GJQsqaUBKTNV-1">
          <mxGeometry x="365.2241379310344" y="1057.9982758620688" width="120" height="40" as="geometry" />
        </mxCell>
        <mxCell id="XnhOhsrcbPEc2k6Vqo-I-87" value="Вход. пар-ры: double* mas, int n&lt;br&gt;Возвр. знач.: count_in_bounds" style="text;html=1;strokeColor=none;fillColor=none;align=left;verticalAlign=middle;whiteSpace=wrap;rounded=0;" vertex="1" parent="WIyWlLk6GJQsqaUBKTNV-1">
          <mxGeometry x="555.2241379310344" y="465.45160919540217" width="180.5" height="30" as="geometry" />
        </mxCell>
        <mxCell id="XnhOhsrcbPEc2k6Vqo-I-88" value="" style="endArrow=none;html=1;rounded=0;entryX=1;entryY=0.5;entryDx=0;entryDy=0;exitX=0;exitY=0.5;exitDx=0;exitDy=0;" edge="1" parent="WIyWlLk6GJQsqaUBKTNV-1" source="XnhOhsrcbPEc2k6Vqo-I-87" target="XnhOhsrcbPEc2k6Vqo-I-85">
          <mxGeometry width="50" height="50" relative="1" as="geometry">
            <mxPoint x="465.2241379310344" y="550.448275862069" as="sourcePoint" />
            <mxPoint x="515.2241379310344" y="500.44827586206895" as="targetPoint" />
          </mxGeometry>
        </mxCell>
        <mxCell id="XnhOhsrcbPEc2k6Vqo-I-89" value="" style="endArrow=none;html=1;rounded=0;" edge="1" parent="WIyWlLk6GJQsqaUBKTNV-1">
          <mxGeometry width="50" height="50" relative="1" as="geometry">
            <mxPoint x="555.2241379310344" y="460.44827586206895" as="sourcePoint" />
            <mxPoint x="555.2241379310344" y="480.44827586206895" as="targetPoint" />
          </mxGeometry>
        </mxCell>
        <mxCell id="XnhOhsrcbPEc2k6Vqo-I-90" value="" style="endArrow=none;html=1;rounded=0;" edge="1" parent="WIyWlLk6GJQsqaUBKTNV-1">
          <mxGeometry width="50" height="50" relative="1" as="geometry">
            <mxPoint x="555.2241379310344" y="500.44827586206895" as="sourcePoint" />
            <mxPoint x="555.2241379310344" y="480.44827586206895" as="targetPoint" />
          </mxGeometry>
        </mxCell>
        <mxCell id="XnhOhsrcbPEc2k6Vqo-I-91" value="" style="endArrow=none;html=1;rounded=0;" edge="1" parent="WIyWlLk6GJQsqaUBKTNV-1">
          <mxGeometry width="50" height="50" relative="1" as="geometry">
            <mxPoint x="555.2241379310344" y="500.44827586206895" as="sourcePoint" />
            <mxPoint x="595.2241379310344" y="500.44827586206895" as="targetPoint" />
          </mxGeometry>
        </mxCell>
        <mxCell id="XnhOhsrcbPEc2k6Vqo-I-92" value="" style="endArrow=none;html=1;rounded=0;" edge="1" parent="WIyWlLk6GJQsqaUBKTNV-1">
          <mxGeometry width="50" height="50" relative="1" as="geometry">
            <mxPoint x="555.2241379310344" y="460.44827586206895" as="sourcePoint" />
            <mxPoint x="595.2241379310344" y="460.44827586206895" as="targetPoint" />
          </mxGeometry>
        </mxCell>
        <mxCell id="XnhOhsrcbPEc2k6Vqo-I-93" value="" style="endArrow=none;html=1;rounded=0;exitX=0.5;exitY=1;exitDx=0;exitDy=0;entryX=0.5;entryY=0;entryDx=0;entryDy=0;" edge="1" parent="WIyWlLk6GJQsqaUBKTNV-1" source="XnhOhsrcbPEc2k6Vqo-I-85">
          <mxGeometry width="50" height="50" relative="1" as="geometry">
            <mxPoint x="593.2241379310344" y="775.448275862069" as="sourcePoint" />
            <mxPoint x="425.2241379310344" y="550.448275862069" as="targetPoint" />
          </mxGeometry>
        </mxCell>
        <mxCell id="XnhOhsrcbPEc2k6Vqo-I-94" value="&lt;font style=&quot;font-size: 12px;&quot;&gt;count_in_bounds = 0&lt;/font&gt;" style="rounded=0;whiteSpace=wrap;html=1;" vertex="1" parent="WIyWlLk6GJQsqaUBKTNV-1">
          <mxGeometry x="365.2241379310344" y="546.448275862069" width="120" height="60" as="geometry" />
        </mxCell>
        <mxCell id="XnhOhsrcbPEc2k6Vqo-I-96" value="" style="endArrow=none;html=1;rounded=0;exitX=0.5;exitY=0;exitDx=0;exitDy=0;entryX=0.5;entryY=1;entryDx=0;entryDy=0;" edge="1" parent="WIyWlLk6GJQsqaUBKTNV-1" target="XnhOhsrcbPEc2k6Vqo-I-94">
          <mxGeometry width="50" height="50" relative="1" as="geometry">
            <mxPoint x="425.2241379310344" y="633.7816091954023" as="sourcePoint" />
            <mxPoint x="670.7241379310344" y="582.7816091954022" as="targetPoint" />
          </mxGeometry>
        </mxCell>
        <mxCell id="XnhOhsrcbPEc2k6Vqo-I-97" value="" style="endArrow=none;html=1;rounded=0;exitX=0.5;exitY=1;exitDx=0;exitDy=0;entryX=0.5;entryY=0;entryDx=0;entryDy=0;exitPerimeter=0;" edge="1" parent="WIyWlLk6GJQsqaUBKTNV-1" source="XnhOhsrcbPEc2k6Vqo-I-117">
          <mxGeometry width="50" height="50" relative="1" as="geometry">
            <mxPoint x="425.2241379310344" y="713.7816091954023" as="sourcePoint" />
            <mxPoint x="425.2241379310344" y="737.781609195402" as="targetPoint" />
          </mxGeometry>
        </mxCell>
        <mxCell id="XnhOhsrcbPEc2k6Vqo-I-104" value="mas[i] &amp;gt;= 2 и&lt;br&gt;mas[i] &amp;lt;= 10" style="rhombus;whiteSpace=wrap;html=1;" vertex="1" parent="WIyWlLk6GJQsqaUBKTNV-1">
          <mxGeometry x="362.2241379310344" y="733.781609195402" width="126" height="80" as="geometry" />
        </mxCell>
        <mxCell id="XnhOhsrcbPEc2k6Vqo-I-105" value="count_in_bounds =&lt;br&gt;count_in_bounds+1" style="rounded=0;whiteSpace=wrap;html=1;" vertex="1" parent="WIyWlLk6GJQsqaUBKTNV-1">
          <mxGeometry x="372.2241379310344" y="867.781609195402" width="106" height="49" as="geometry" />
        </mxCell>
        <mxCell id="XnhOhsrcbPEc2k6Vqo-I-106" value="" style="endArrow=none;html=1;rounded=0;entryX=0;entryY=0.5;entryDx=0;entryDy=0;" edge="1" parent="WIyWlLk6GJQsqaUBKTNV-1" target="XnhOhsrcbPEc2k6Vqo-I-104">
          <mxGeometry width="50" height="50" relative="1" as="geometry">
            <mxPoint x="335.7241379310344" y="773.781609195402" as="sourcePoint" />
            <mxPoint x="469.7241379310344" y="810.781609195402" as="targetPoint" />
          </mxGeometry>
        </mxCell>
        <mxCell id="XnhOhsrcbPEc2k6Vqo-I-107" value="" style="endArrow=none;html=1;rounded=0;" edge="1" parent="WIyWlLk6GJQsqaUBKTNV-1">
          <mxGeometry width="50" height="50" relative="1" as="geometry">
            <mxPoint x="335.7241379310344" y="773.781609195402" as="sourcePoint" />
            <mxPoint x="334.7241379310344" y="842.781609195402" as="targetPoint" />
          </mxGeometry>
        </mxCell>
        <mxCell id="XnhOhsrcbPEc2k6Vqo-I-108" value="" style="endArrow=none;html=1;rounded=0;" edge="1" parent="WIyWlLk6GJQsqaUBKTNV-1">
          <mxGeometry width="50" height="50" relative="1" as="geometry">
            <mxPoint x="334.7241379310344" y="842.781609195402" as="sourcePoint" />
            <mxPoint x="424.7241379310344" y="842.781609195402" as="targetPoint" />
          </mxGeometry>
        </mxCell>
        <mxCell id="XnhOhsrcbPEc2k6Vqo-I-109" value="" style="endArrow=none;html=1;rounded=0;exitX=0.5;exitY=0;exitDx=0;exitDy=0;" edge="1" parent="WIyWlLk6GJQsqaUBKTNV-1" source="XnhOhsrcbPEc2k6Vqo-I-105">
          <mxGeometry width="50" height="50" relative="1" as="geometry">
            <mxPoint x="365.7241379310344" y="887.781609195402" as="sourcePoint" />
            <mxPoint x="424.7241379310344" y="842.781609195402" as="targetPoint" />
          </mxGeometry>
        </mxCell>
        <mxCell id="XnhOhsrcbPEc2k6Vqo-I-110" value="Да" style="text;html=1;strokeColor=none;fillColor=none;align=center;verticalAlign=middle;whiteSpace=wrap;rounded=0;" vertex="1" parent="WIyWlLk6GJQsqaUBKTNV-1">
          <mxGeometry x="325.7241379310344" y="750.781609195402" width="60" height="30" as="geometry" />
        </mxCell>
        <mxCell id="XnhOhsrcbPEc2k6Vqo-I-111" value="" style="endArrow=none;html=1;rounded=0;exitX=0.5;exitY=1;exitDx=0;exitDy=0;entryX=0.5;entryY=1;entryDx=0;entryDy=0;entryPerimeter=0;" edge="1" parent="WIyWlLk6GJQsqaUBKTNV-1" source="XnhOhsrcbPEc2k6Vqo-I-105" target="XnhOhsrcbPEc2k6Vqo-I-118">
          <mxGeometry width="50" height="50" relative="1" as="geometry">
            <mxPoint x="401.7241379310344" y="861.781609195402" as="sourcePoint" />
            <mxPoint x="425.7241379310344" y="940.781609195402" as="targetPoint" />
          </mxGeometry>
        </mxCell>
        <mxCell id="XnhOhsrcbPEc2k6Vqo-I-113" value="" style="endArrow=none;html=1;rounded=0;exitX=1;exitY=0.5;exitDx=0;exitDy=0;" edge="1" parent="WIyWlLk6GJQsqaUBKTNV-1">
          <mxGeometry width="50" height="50" relative="1" as="geometry">
            <mxPoint x="505.7241379310344" y="773.781609195402" as="sourcePoint" />
            <mxPoint x="506" y="945" as="targetPoint" />
          </mxGeometry>
        </mxCell>
        <mxCell id="XnhOhsrcbPEc2k6Vqo-I-115" value="" style="endArrow=none;html=1;rounded=0;exitX=1;exitY=0.5;exitDx=0;exitDy=0;" edge="1" parent="WIyWlLk6GJQsqaUBKTNV-1" source="XnhOhsrcbPEc2k6Vqo-I-104">
          <mxGeometry width="50" height="50" relative="1" as="geometry">
            <mxPoint x="489.7241379310344" y="769.451609195402" as="sourcePoint" />
            <mxPoint x="505.7241379310344" y="773.451609195402" as="targetPoint" />
          </mxGeometry>
        </mxCell>
        <mxCell id="XnhOhsrcbPEc2k6Vqo-I-116" value="Нет" style="text;html=1;strokeColor=none;fillColor=none;align=center;verticalAlign=middle;whiteSpace=wrap;rounded=0;" vertex="1" parent="WIyWlLk6GJQsqaUBKTNV-1">
          <mxGeometry x="463.7241379310344" y="748.451609195402" width="60" height="30" as="geometry" />
        </mxCell>
        <mxCell id="XnhOhsrcbPEc2k6Vqo-I-117" value="i = 0; i &amp;lt; n; ++i" style="strokeWidth=2;html=1;shape=mxgraph.flowchart.loop_limit;whiteSpace=wrap;" vertex="1" parent="WIyWlLk6GJQsqaUBKTNV-1">
          <mxGeometry x="375.22" y="632" width="100" height="60" as="geometry" />
        </mxCell>
        <mxCell id="XnhOhsrcbPEc2k6Vqo-I-118" value="i" style="strokeWidth=2;html=1;shape=mxgraph.flowchart.loop_limit;whiteSpace=wrap;flipV=1;" vertex="1" parent="WIyWlLk6GJQsqaUBKTNV-1">
          <mxGeometry x="375.22" y="966" width="100" height="60" as="geometry" />
        </mxCell>
        <mxCell id="XnhOhsrcbPEc2k6Vqo-I-119" value="" style="endArrow=none;html=1;rounded=0;" edge="1" parent="WIyWlLk6GJQsqaUBKTNV-1">
          <mxGeometry width="50" height="50" relative="1" as="geometry">
            <mxPoint x="426" y="945" as="sourcePoint" />
            <mxPoint x="506" y="945" as="targetPoint" />
          </mxGeometry>
        </mxCell>
        <mxCell id="XnhOhsrcbPEc2k6Vqo-I-120" value="" style="endArrow=none;html=1;rounded=0;entryX=0.5;entryY=0;entryDx=0;entryDy=0;entryPerimeter=0;exitX=0.5;exitY=0;exitDx=0;exitDy=0;" edge="1" parent="WIyWlLk6GJQsqaUBKTNV-1" source="XnhOhsrcbPEc2k6Vqo-I-86" target="XnhOhsrcbPEc2k6Vqo-I-118">
          <mxGeometry width="50" height="50" relative="1" as="geometry">
            <mxPoint x="133" y="948" as="sourcePoint" />
            <mxPoint x="183" y="898" as="targetPoint" />
          </mxGeometry>
        </mxCell>
      </root>
    </mxGraphModel>
  </diagram>
</mxfile>
